<svg xmlns="http://www.w3.org/2000/svg" fill="none" viewBox="0 0 131 40">
  <path fill="#48B774" d="M27.28 26.42a6.61 6.61 0 0 1-3 2.13c-1.27.48-2.72.72-4.34.72a8.57 8.57 0 0 1-4.43-1.13 7.6 7.6 0 0 1-2.98-3.24 11.47 11.47 0 0 1-1.08-4.94V18.4c0-3 .72-5.35 2.16-7.04 1.44-1.7 3.45-2.54 6.03-2.54 2.21 0 3.97.55 5.28 1.64a7.07 7.07 0 0 1 2.35 4.73h-3.4c-.38-2.4-1.77-3.6-4.16-3.6a4.1 4.1 0 0 0-3.54 1.69c-.8 1.1-1.22 2.75-1.25 4.9v1.54c0 2.15.45 3.82 1.36 5.01a4.51 4.51 0 0 0 3.78 1.78c1.77 0 3.03-.4 3.78-1.2v-3.9h-4.1V18.8h7.54v7.63Z"/>
  <circle cx="20" cy="20" r="17.5" stroke="#F9A779" stroke-width="5"/>
  <path fill="#2D2D2D" d="M62.45 16.63a4.52 4.52 0 0 0-1.88-1.95A5.56 5.56 0 0 0 57.8 14c-1.15 0-2.17.26-3.07.78a5.44 5.44 0 0 0-2.13 2.2c-.5.95-.75 2.04-.75 3.3 0 1.24.25 2.35.75 3.32a5.51 5.51 0 0 0 2.13 2.2c.9.52 1.92.77 3.07.77 1.55 0 2.8-.43 3.78-1.3a5.65 5.65 0 0 0 1.77-3.52h-6.52v-2.27h9.57v2.22a8.47 8.47 0 0 1-1.45 3.73 8.52 8.52 0 0 1-7.15 3.72 8.67 8.67 0 0 1-8.88-8.88c0-1.7.4-3.22 1.18-4.57a8.48 8.48 0 0 1 3.23-3.15 9 9 0 0 1 4.47-1.15c1.85 0 3.5.46 4.93 1.38 1.45.9 2.5 2.18 3.15 3.85h-3.43Zm9.61-6.13V29h-2.85V10.5h2.85Zm9.72 18.73a7.2 7.2 0 0 1-3.53-.88 6.49 6.49 0 0 1-2.47-2.5 7.61 7.61 0 0 1-.9-3.75c0-1.4.3-2.64.92-3.73a6.39 6.39 0 0 1 2.53-2.5A7.33 7.33 0 0 1 81.9 15c1.32 0 2.51.3 3.58.88a6.39 6.39 0 0 1 2.52 2.5 7.4 7.4 0 0 1 .93 3.72c0 1.4-.32 2.64-.95 3.72a6.64 6.64 0 0 1-2.6 2.53 7.47 7.47 0 0 1-3.6.88Zm0-2.48a4.17 4.17 0 0 0 3.62-2.1c.4-.7.6-1.55.6-2.55 0-1-.19-1.84-.57-2.53-.39-.7-.9-1.22-1.53-1.57a4.17 4.17 0 0 0-2.05-.52 3.76 3.76 0 0 0-3.53 2.1 5.29 5.29 0 0 0-.54 2.52c0 1.48.37 2.63 1.12 3.45.77.8 1.73 1.2 2.88 1.2Zm12.82-9.48a5.32 5.32 0 0 1 1.97-1.62A6.2 6.2 0 0 1 99.4 15a6.14 6.14 0 0 1 5.62 3.38c.57 1.06.85 2.29.85 3.67s-.28 2.63-.85 3.72a6.16 6.16 0 0 1-5.62 3.45c-1.07 0-2.02-.2-2.85-.62A5.48 5.48 0 0 1 94.6 27v2h-2.85V10.5h2.85v6.77Zm8.37 4.78c0-.95-.2-1.77-.6-2.45-.38-.7-.9-1.23-1.55-1.58a4.11 4.11 0 0 0-5.65 1.6c-.38.7-.57 1.53-.57 2.48s.19 1.78.57 2.5a4.11 4.11 0 0 0 5.65 1.6 4.12 4.12 0 0 0 1.55-1.65c.4-.72.6-1.55.6-2.5Zm4.77 0c0-1.38.28-2.6.85-3.68a6.36 6.36 0 0 1 5.65-3.37c1.08 0 2.02.22 2.82.65a5.6 5.6 0 0 1 1.95 1.58v-2h2.88V29H119v-2.05a6.09 6.09 0 0 1-4.83 2.28c-1.18 0-2.26-.3-3.24-.9a6.69 6.69 0 0 1-2.35-2.55 8.02 8.02 0 0 1-.85-3.73Zm11.27.05c0-.95-.2-1.78-.6-2.48a4.03 4.03 0 0 0-5.62-1.6c-.64.36-1.15.88-1.55 1.58-.38.68-.58 1.5-.58 2.45 0 .95.2 1.78.58 2.5.4.72.92 1.27 1.55 1.65a4.11 4.11 0 0 0 4.1 0c.63-.37 1.14-.9 1.52-1.6.4-.72.6-1.55.6-2.5Zm9.47-11.6V29h-2.85V10.5h2.85Z"/>
</svg>